<?xml version="1.0" encoding="utf-8"?>
<!-- Generator: Adobe Illustrator 23.0.1, SVG Export Plug-In . SVG Version: 6.00 Build 0)  -->
<svg version="1.1" id="Vrstva_1" xmlns="http://www.w3.org/2000/svg" xmlns:xlink="http://www.w3.org/1999/xlink" x="0px" y="0px"
	 viewBox="0 0 500 200" style="enable-background:new 0 0 500 200;" xml:space="preserve">
<style type="text/css">
	.st0{fill:#42A047;}
</style>
<path class="st0" d="M240,61.9c2.4-0.9,4.6-1.9,6.8-2.6c3.7-1.3,7.5-2,11.5-1.5c7.1,0.8,10.3,5.3,11.5,11.1c0.5,2.2,0.6,4.5,0.6,6.7
	c0,6.1,0,12.1,0,18.2c0,1.9,0.5,3.4,2.3,4.1c3.3,1.2,4.6,3.3,3.8,7c-0.5,2.4-0.2,2.4-2.7,2.4c-7.2,0-14.5,0-21.7,0
	c-1.2,0-1.7-0.2-1.7-1.5c0-2.1-0.2-4.2-0.3-6.3c0-0.7,0.1-1.2,0.9-1.4c1.2-0.3,2.9-0.2,3.4-1.2c0.5-1,0.2-2.4,0.2-3.7
	c0-5.6,0-11.1,0-16.7c-0.1-5.4-1.5-6.7-6.9-6.5c-2.4,0.1-4.7,0.5-7,0.9c-0.7,0.1-0.8,0.5-0.8,1c0,7.6,0,15.3,0,22.9
	c0,1.3,0.5,2.2,1.7,2.8c0.9,0.5,1.8,1.2,2.7,1.6c1.6,0.6,2.2,1.7,1.9,3.4c-0.1,0.6-0.1,1.3-0.2,1.9c-0.2,2.8-0.2,2.8-3,2.8
	c-7.6,0-15.3,0-22.9,0c-1.1,0-1.4-0.3-1.4-1.3c0-2-0.1-4-0.3-6c-0.2-1.4,0.4-1.9,1.6-2.1c1-0.2,2-0.6,3-0.8c0.8-0.2,1.1-0.5,1.1-1.4
	c0-14.7,0-29.3,0-44c0-1.9-0.6-3.4-2.5-4c-2.8-0.9-3.8-2.5-3.3-5.5c0.5-3.2,0.2-3.2,3.6-3.9c5-1,10-1.7,15-2.3
	c1.3-0.2,2,0.1,2.3,1.5c0.3,1.6,0.7,3.2,0.7,4.9C240,48.8,240,55.3,240,61.9z"/>
<path class="st0" d="M177.6,74.1c-0.1,3.9,0.3,7.7,1.6,11.4c2.1,5.7,6.3,8.5,12.3,9.1c5.5,0.5,10.6-0.9,15.8-2.2
	c1.1-0.3,2.1-0.5,3.2-0.9c0.7-0.3,0.9,0,1,0.6c0.8,2.9,1.6,5.8,2.5,8.7c0.3,0.9-0.4,1.1-0.9,1.4c-4.7,2.8-9.7,4.5-15,5.6
	c-6.4,1.3-12.9,1.4-19.2-0.6c-8.4-2.5-13.9-8.2-16.7-16.4c-3.3-9.9-3.6-19.9,0.1-29.8c3.8-10.3,11.5-15.9,22.2-17.5
	c9.7-1.5,18.9,0.5,27.9,4.1c0.7,0.3,0.9,0.7,0.8,1.3c-0.6,5.6-1.5,11.2-2.5,16.8c-0.1,0.6-0.3,0.9-1,0.9c-1.8,0.1-3.5,0.2-5.3,0.3
	c-0.8,0.1-1.3-0.2-1.7-0.9c-1.7-2.5-3.4-5-5.1-7.5c-0.5-0.7-1-1.1-1.9-1.3c-4.6-1.1-9.2-1.1-13.9-0.4c-0.9,0.1-1.3,0.5-1.6,1.3
	C178.4,63.3,177.7,68.7,177.6,74.1z"/>
<path class="st0" d="M458.9,91c2.3-5.9,4.6-11.4,6.8-16.9c0.5-1.3,1-2.7,1.6-4c0.6-1.3,0.3-2.1-1.1-2.7c-1.2-0.5-3-0.6-3.5-1.8
	c-0.5-1,0.1-2.5,0.2-3.8c0.3-3.3,0.3-3.3,3.7-3.3c4.4,0,8.7,0,13.1,0c1.1,0,1.5,0.4,1.5,1.4c0.1,1.7,0.4,3.5,0.6,5.2
	c0.1,0.6,0,1.1-0.2,1.6c-7.3,15.6-14.1,31.4-21.9,46.8c-2.5,4.8-5.2,9.5-8.1,14.1c-0.6,0.9-0.9,0.9-1.8,0.3
	c-3.9-2.8-7.2-6.1-10.1-9.8c-0.6-0.8-0.6-1.2,0.1-1.8c2.9-2.8,5.7-5.6,8.6-8.4c0.7-0.6,0.8-1.2,0.5-2.1
	c-4.5-11.6-8.9-23.3-13.3-34.9c-0.8-2-1.7-4-3.2-5.6c-1.3-1.3-0.8-2.7-0.8-4.1c0.1-2.7,0.1-2.7,2.8-2.7c6.6,0,13.2,0,19.9,0
	c1.2,0,1.5,0.4,1.6,1.5c0.2,1.8,0.4,3.6,0.6,5.4c0.1,0.9-0.2,1.3-1,1.4c-1.1,0.2-2.1,0.6-3.2,0.8c-0.9,0.1-1,0.5-0.7,1.3
	C454,76.1,456.4,83.4,458.9,91z"/>
<path class="st0" d="M408.9,107.2c-4.4,0-8.8,0-13.2,0c-1,0-1.4-0.3-1.4-1.3c0-2.1-0.1-4.2-0.2-6.3c0-0.7,0.2-1.1,0.9-1.3
	c1.5-0.4,3-0.9,4.5-1.3c0.8-0.2,1.1-0.5,1.1-1.4c0-8.4,0-16.8,0-25.1c0-0.9-0.3-1.2-1.2-1.2c-1.4,0.1-2.8,0-4.2,0
	c-0.8,0-1.2-0.2-1.1-1.1c0.1-2.4,0-4.7,0-7.1c0-0.8,0.3-1.2,1.1-1.2c1.4,0,2.8-0.2,4.2-0.2c1,0,1.2-0.3,1.2-1.3
	c0-3.2-0.2-6.4,0.5-9.6c1.4-6.7,5.6-10.8,12.2-12.3c5.8-1.4,11.7-0.6,17.5,0.4c0.8,0.1,0.8,0.5,0.7,1.1c-0.6,3.6-1.2,7.1-1.8,10.7
	c-0.1,0.8-0.3,1.1-1.3,0.8c-3.6-1.1-7.2-1.6-11-1.6c-1,0-1.3,0.2-1.3,1.2c0.1,2.8,0.1,5.6,0,8.4c0,1.1,0.3,1.3,1.4,1.3
	c2.7-0.2,5.4-0.3,8.1-0.5c1-0.1,1.2,0.2,1.2,1.1c-0.1,3-0.1,6,0,9c0,1.1-0.4,1.2-1.3,1.2c-2.7-0.1-5.3-0.1-8-0.2
	c-1,0-1.4,0.2-1.4,1.3c0.1,7.7,0.1,15.5,0,23.2c0,1.8,0.6,3,2.3,3.8c1.5,0.7,2.9,1.6,4.4,2.3c0.7,0.4,1.1,0.7,1,1.6
	c-0.1,1.4-0.2,2.8-0.1,4.2c0,1-0.3,1.3-1.3,1.3C417.9,107.2,413.4,107.2,408.9,107.2z"/>
<path class="st0" d="M352,68c0,8.7,0,17.4,0,26c0,1.8,0.6,3,2.2,3.9c1.4,0.8,3.4,1.2,4,2.6c0.5,1.4,0,3.2-0.1,4.8
	c-0.1,2-0.1,2-2.2,2c-8.2,0-16.4,0-24.5,0c-1.1,0-1.4-0.3-1.4-1.4c0-2.1-0.1-4.1-0.2-6.2c0-0.8,0.2-1.2,1-1.4c1.5-0.4,3-0.9,4.5-1.3
	c0.8-0.2,1.1-0.5,1.1-1.4c0-14.7,0-29.4,0-44.1c0-1.8-0.6-3-2.3-3.7c-0.5-0.2-0.9-0.5-1.3-0.7c-2.6-1.3-2.6-1.3-2.3-4.1
	c0.1-1,0.2-2.1,0.2-3.2c0-0.8,0.3-1.1,1.1-1.3c5.7-0.9,11.4-2,17.2-2.7c1.4-0.2,2.1,0.1,2.4,1.6c0.3,1.5,0.7,2.9,0.7,4.4
	C352,50.6,352,59.3,352,68C352,68,352,68,352,68z"/>
<path class="st0" d="M383.9,79.5c0,4.9,0,9.8,0,14.7c0,1.6,0.5,2.8,2,3.5c0.8,0.4,1.4,1,2.2,1.2c1.9,0.7,2.5,1.9,2.1,3.8
	c-0.1,0.4-0.1,0.8-0.1,1.2c-0.1,1,0.2,2.4-0.3,3c-0.7,0.7-2.1,0.2-3.2,0.2c-7.8,0-15.5,0-23.3,0c-1,0-1.4-0.3-1.4-1.3
	c0-2.1-0.1-4.1-0.2-6.2c-0.1-0.9,0.2-1.3,1-1.5c1.5-0.4,3-0.9,4.5-1.3c0.7-0.2,1.1-0.5,1.1-1.3c0-7.4,0-14.7,0-22.1
	c0-1.7-0.6-2.9-2.1-3.6c-0.1-0.1-0.3-0.2-0.4-0.2c-3.4-1-3.9-3.3-3.3-6.4c0.5-2.6,0.3-2.6,2.8-3c5.2-0.9,10.3-2.1,15.6-2.5
	c1.2-0.1,1.7,0.3,2,1.5c0.7,2.6,1.1,5.2,1.1,7.8C383.9,71.3,383.9,75.4,383.9,79.5C383.9,79.5,383.9,79.5,383.9,79.5z"/>
<path class="st0" d="M385.2,47.7c0.2,0.6-0.3,0.7-0.7,0.8c-4.7,1.3-9.5,2.6-14.2,3.9c-0.7,0.2-0.9-0.1-1-0.7
	c-1.1-4.2-2.3-8.4-3.4-12.6c-0.2-0.7,0-0.9,0.7-1.1c4.7-1.2,9.4-2.4,14.1-3.7c0.6-0.2,0.9-0.2,1.1,0.5c1.1,4.3,2.3,8.5,3.5,12.7
	C385.2,47.6,385.2,47.6,385.2,47.7z"/>
<path class="st0" d="M298.5,151.5c1.3-1.2,2.4-2.2,4-2.4c3.9-0.4,6.8,1.9,7.1,5.8c0.2,2.9,0,5.8,0.1,8.7c0,1-0.6,0.8-1.2,0.8
	c-0.7,0-1.3,0.1-1.2-1c0.1-2.6,0-5.2,0-7.8c0-2.8-1.6-4.5-4.1-4.5c-2.6,0-4.6,1.7-4.6,4.5c-0.1,2.6-0.1,5.2,0,7.8
	c0,0.9-0.3,1.1-1.1,1.1c-0.7,0-1.2,0-1.2-1c0-6.4,0-12.8,0-19.3c0-1,0.5-1.1,1.3-1.1c0.9,0,1,0.4,1,1.2
	C298.4,146.6,298.5,148.9,298.5,151.5z"/>
<path class="st0" d="M417.2,164.7c-2.5-0.2-4.6-0.9-5.8-3.4c-0.2-0.5-0.8-1.4,0-1.6c0.6-0.2,1.7-0.6,2.2,0.8
	c0.8,2.4,5.7,3.1,7.4,1.1c0.8-0.9,0.6-2.2-0.6-2.9c-1.1-0.7-2.4-0.9-3.7-1.2c-1.1-0.2-2.1-0.5-3.1-1c-1.3-0.7-2.1-1.6-2.1-3.2
	c0-1.6,0.6-2.9,2.1-3.6c2.5-1.1,5-1.2,7.5,0c0.7,0.4,1.3,0.9,1.7,1.7c0.2,0.5,0.9,1.3,0.2,1.6c-0.6,0.3-1.7,0.6-2.3-0.6
	c-0.9-1.8-5-2.2-6.4-0.8c-0.9,0.9-0.7,2.3,0.5,2.9c1,0.5,2.2,0.8,3.3,1c0.8,0.2,1.7,0.4,2.5,0.6c2.3,0.8,3.4,2.1,3.2,4.1
	c-0.1,2-1.5,3.5-3.7,3.9C419.1,164.6,418.1,164.6,417.2,164.7z"/>
<path class="st0" d="M366.8,162.1c-1.7,2-3.5,2.8-5.8,2.5c-2.9-0.4-5.1-2.5-5.2-5.5c-0.2-3,0-6-0.1-9c0-1,0.6-0.8,1.2-0.9
	c0.6,0,1.1,0,1,0.9c0,2.2,0,4.4,0,6.6c0,0.3,0,0.5,0,0.8c0.1,3.3,1.6,5.2,4.4,5.2c2.7,0,4.5-2,4.5-5.2c0-2.4,0-4.7,0-7.1
	c0-0.9,0.3-1.1,1.1-1.1c0.8,0,1.1,0.2,1.1,1.1c0,4.3,0,8.5,0,12.8c0,0.8,0.2,1.4-1.1,1.4c-1.1,0-1.2-0.5-1.1-1.4
	C366.8,163,366.8,162.8,366.8,162.1z"/>
<path class="st0" d="M171.4,154.4c0-3,0-5.9,0-8.9c0-0.9,0.1-1.3,1.1-1.2c0.9,0,1.2,0.3,1.2,1.2c0,5.1,0,10.2,0,15.3
	c0,1.2,0.4,1.5,1.5,1.5c2.8-0.1,5.5,0,8.3,0c0.9,0,1.2,0.2,1.2,1.2c0,1-0.4,1-1.2,1c-3.6,0-7.2,0-10.8,0c-1,0-1.3-0.2-1.3-1.2
	C171.4,160.3,171.4,157.4,171.4,154.4z"/>
<path class="st0" d="M203.5,162c1.3-3.5,2.5-6.6,3.6-9.7c0.2-0.7,0.5-1.3,0.7-2c0.4-1.5,1.5-1.1,2.4-1c0.8,0.1,0.2,0.8,0,1.1
	c-1.5,3.9-3,7.7-4.5,11.6c-0.1,0.4-0.3,0.7-0.4,1.1c-0.2,1-0.7,1.5-1.8,1.4c-1.1,0-1.5-0.4-1.9-1.4c-1.6-4.2-3.2-8.3-4.8-12.4
	c-0.1-0.4-1.1-1.1,0-1.4c0.7-0.2,1.8-0.6,2.3,0.7c1.1,3,2.2,5.9,3.3,8.8C202.7,159.8,203.1,160.7,203.5,162z"/>
<path class="st0" d="M345.1,157.9c0-1.8,0-3.6,0-5.4c0-0.9-0.3-1.2-1.2-1.2c-0.6,0-1.5,0.4-1.5-0.9c0-1.3,0.7-1.1,1.4-1.1
	c1.1,0.1,1.3-0.5,1.3-1.4c0.1-3,1.8-4.7,4.6-4.8c0.5,0,1.2-0.3,1.1,0.7c-0.1,0.6,0.3,1.4-0.9,1.4c-1.9,0.1-2.6,1.1-2.7,3
	c0,0.7,0.2,1.1,1,1.1c0.5,0,1,0,1.5,0c0.8-0.1,1.1,0.2,1.1,1.1c0,0.9-0.4,0.9-1.1,1c-2.5,0.1-2.5,0.1-2.5,2.5c0,3.2,0,6.3,0,9.5
	c0,0.9-0.1,1.2-1.1,1.2c-1,0-1.1-0.4-1.1-1.2C345.1,161.5,345.1,159.7,345.1,157.9z"/>
<path class="st0" d="M285.5,157.9c0-1.6-0.1-3.2,0-4.8c0.1-1.4-0.3-2-1.8-1.8c-0.4,0.1-1,0.3-1.3-0.3c-0.4-0.9,0.1-1.8,1.1-1.6
	c1.7,0.2,2.2-0.5,2-2.1c-0.1-0.7,0-1.4,0-2.1c0-0.7-0.1-1.3,1-1.3c1,0,1.3,0.3,1.3,1.3c-0.1,1,0,2,0,3c-0.1,0.9,0.3,1.3,1.2,1.2
	c0.4,0,0.9,0,1.4,0c0.9-0.1,1,0.4,1,1.1c0,0.7-0.2,0.9-0.9,1c-2.6,0.1-2.6,0.2-2.6,2.7c0,3.1,0,6.1,0,9.2c0,0.9-0.1,1.3-1.2,1.3
	c-1,0-1.1-0.4-1.1-1.2C285.5,161.5,285.5,159.7,285.5,157.9z"/>
<path class="st0" d="M430.7,157.9c0-1.7-0.1-3.3,0-5c0.1-1.3-0.3-1.8-1.6-1.7c-0.5,0.1-1.4,0.5-1.5-0.6c-0.1-1,0.2-1.6,1.3-1.4
	c1.5,0.3,2.1-0.3,1.9-1.8c-0.1-0.7,0-1.5,0-2.3c-0.1-0.9,0.1-1.4,1.2-1.4c1.1,0,1.2,0.5,1.2,1.4c0,0.4,0,0.9,0,1.4
	c0,2.5,0,2.6,2.5,2.7c0.9,0,0.9,0.5,0.9,1.1c0,0.8-0.3,0.9-1,0.9c-2.4,0.1-2.4,0.1-2.4,2.6c0,3.1,0,6.2,0,9.3c0,0.9-0.2,1.3-1.2,1.3
	c-1,0-1.2-0.4-1.1-1.2C430.8,161.5,430.7,159.7,430.7,157.9z"/>
<path class="st0" d="M245.1,157.9c0-1.8-0.1-3.5,0-5.3c0.1-1.1-0.3-1.5-1.4-1.4c-0.5,0-1.4,0.5-1.7-0.4c-0.2-0.9-0.2-1.8,1.2-1.6
	c1.7,0.3,2.1-0.5,1.9-2c-0.1-0.7,0-1.4,0-2.1c0-0.8,0-1.4,1.2-1.4c1.1,0,1.1,0.5,1.1,1.3c0,0.3,0,0.7,0,1.1c0,0.9-0.2,2.1,0.2,2.8
	c0.5,0.8,1.7,0.3,2.5,0.3c0.8,0,0.8,0.5,0.8,1.1c0,0.6-0.1,0.9-0.8,0.9c-0.9,0-2.1-0.5-2.5,0.3c-0.4,0.7-0.2,1.8-0.2,2.8
	c0,3,0,6,0,9c0,0.8-0.2,1.1-1.1,1.1c-0.9,0-1.2-0.2-1.2-1.2C245.2,161.5,245.1,159.7,245.1,157.9z"/>
<path class="st0" d="M384,153.7c0-3.1,0-6.2,0-9.3c0-0.9,0.2-1.3,1.2-1.2c0.9,0,1.2,0.2,1.2,1.2c0,6.4,0,12.7,0,19.1
	c0,1-0.4,1.1-1.2,1.1c-1,0-1.2-0.4-1.1-1.2C384.1,160.1,384,156.9,384,153.7z"/>
<path class="st0" d="M375.4,153.9c0-3.2,0-6.4,0-9.6c0-0.9,0.2-1.2,1.2-1.2c1,0,1.2,0.3,1.2,1.2c0,6.4,0,12.7,0,19.1
	c0,0.8-0.1,1.2-1,1.1c-0.8,0-1.3,0-1.3-1.1C375.4,160.3,375.4,157.1,375.4,153.9z"/>
<path class="st0" d="M189.4,156.9c0-2.2,0-4.4,0-6.6c0-0.9,0.3-1.1,1.1-1.1c0.8,0,1.2,0.1,1.2,1c0,4.4,0,8.8,0,13.2
	c0,1-0.5,0.9-1.2,1c-0.9,0.1-1.1-0.2-1.1-1.1C189.5,161.3,189.4,159.1,189.4,156.9z"/>
<path class="st0" d="M191.9,145.5c0.2,0.8-0.1,1.2-1.2,1.2c-1.4,0.1-1.2-0.7-1.3-1.6c-0.1-1,0.1-1.5,1.3-1.5
	C192.2,143.7,191.8,144.6,191.9,145.5z"/>
<path class="st0" d="M142.4,50.1c-2.1-1.2-4.4-1.4-6.8-1.3c-2,0.1-3.9,0.5-6.1,0.8c1.7-2.8,3.2-5.5,3.9-8.5c1-4.7-1.2-8.4-5.5-9.3
	c-1.9-0.4-3.8,0-5.6,0.6c-3.9,1.4-7.2,3.7-10.4,6.3c-0.7,0.5-0.9,0.6-1.4-0.3c-0.9-1.8-2.5-2.8-4.4-3.4c-4.9-1.5-9.2-0.5-12.9,3.1
	C89,41.9,87,47,85.6,52.2c-0.3,1.1-0.7,1.4-1.8,1.4c-3.9-0.2-7.7,0.5-11.4,1.7c-8.1,2.5-14.9,7.4-21.2,12.8
	C35.9,81.2,25,97.5,16.8,115.7c-1.2,2.7-0.3,4.2,2.7,4.5c7.1,0.8,14.3,0.9,21.5,0.6c6.6-0.3,13.1-0.9,19.5-2.2
	c0.7-0.2,0.9,0.2,1.1,0.6c0.9,1.6,1.7,3.2,2.6,4.8c3.9,7.3,7.6,14.8,11.9,21.9c4.7,8,11.6,12.3,21.3,10.6c0.8-0.2,0.9,0.3,1.2,0.8
	c1.4,2.7,2.9,5.4,4.3,8.1c0.5,0.9,1.1,1.6,2.1,1.8c1,0.1,1.8-0.2,2.4-0.9c0.7-0.9,0.7-1.9,0.2-3c-1.8-3.5-3.7-6.9-5.5-10.4
	c-1.1-2.1-1.9-2.5-4.3-1.8c-5.9,1.8-10.8,0.1-14.9-4.4c-1.2-1.3-2.2-2.8-3.1-4.4c-4.3-8-8.6-16-12.8-24c-0.9-1.7-0.9-1.7,0.9-2.5
	c0.8-0.4,1.5-0.8,2.3-1.3c0.3,0.6,0.7,1.1,1,1.7c2.4,4.5,4.8,9.1,7.3,13.6c1.9,3.3,5.4,4.8,8.8,3.7c4.6-1.5,6.5-6.5,4.1-11
	c-2.5-4.8-5.2-9.5-7.8-14.2c-1.1-1.9-1.1-1.9,0.9-2.8c0.4-0.2,0.8-0.3,1-0.6c0.9-0.9,1.3-0.4,1.8,0.5c2.7,5.1,5.5,10.1,8.3,15.1
	c1.8,3.1,4.9,4.7,8,4c5.2-1.1,7.5-6.4,4.9-11.4c-2.6-5.1-5.3-10.2-8-15.3c-1.3-2.4-1.3-2.4,1-3.8c0.2-0.1,0.4-0.2,0.5-0.3
	c1-0.9,1.4-0.4,1.9,0.5c4.3,8.3,8.7,16.5,13,24.7c1.5,2.8,3.1,5.6,3.5,8.9c0.7,5.4-1.2,9.7-5.1,13.4c-1.7,1.7-1.8,2.4-0.7,4.5
	c2.1,3.9,4.2,7.9,6.3,11.8c1.5,2.7,2.9,5.5,4.4,8.2c0.8,1.4,2.2,1.8,3.4,1.2c1.3-0.7,1.8-2.1,1.1-3.6c-0.1-0.3-0.3-0.5-0.4-0.8
	c-3.1-5.7-6.1-11.5-9.2-17.2c-0.4-0.7-0.5-1.1,0.1-1.8c6.3-7.5,7.1-15.6,2.4-24.4c-4.1-7.9-8.2-15.8-12.5-23.6
	c-1.2-2.2-1.9-4.2-0.8-6.7c0.5-1.2,0.8-1.3,1.9-1c4.5,1.4,9.1,2.5,13.9,2.3c3.1-0.2,6-0.9,7.8-3.7c2.3-3.6,1.8-7.7-1.6-11
	c-0.9-0.8-0.6-1,0.2-1.5c2.6-1.5,5-3.1,7.3-5c2.5-2.1,4.9-4.3,6.4-7.3C147.5,57.1,146.3,52.2,142.4,50.1z M86.5,124.6
	c0.3,0.6,0.6,1.2,0.6,1.8c0,0.9-0.4,1.7-1.2,2c-0.8,0.4-1.7,0.3-2.4-0.3c-0.3-0.3-0.6-0.7-0.8-1.1c-2.1-3.8-4.1-7.7-6.2-11.5
	c-0.4-0.8-0.2-1.1,0.6-1.4c3.2-1.2,3.2-1.2,4.8,1.8C83.4,118.9,85,121.8,86.5,124.6z M82.6,89.5c-1.5,0-3.4-2.3-3.4-4
	c0-1.4,1.2-2.6,2.6-2.6c1.4,0,3.4,2.3,3.4,4.1C85.2,88.4,84,89.5,82.6,89.5z M103.6,115.3c0.3,0.6,0.7,1.2,0.6,1.7
	c0,1.2-0.4,1.9-1.3,2.3c-0.8,0.4-1.5,0.2-2.3-0.3c-0.5-0.3-0.8-0.8-1-1.3c-1.9-3.4-3.7-6.9-5.6-10.3c-0.4-0.7-0.4-1,0.3-1.4
	c0.4-0.2,0.8-0.5,1.1-0.7c2.2-1.4,2.2-1.4,3.3,0.8C100.5,109.3,102.1,112.3,103.6,115.3z M140.4,59.7c-1.5,2.5-3.8,4.3-6,6
	c-2.4,1.9-5,3.5-7.7,5c-0.8,0.5-1.6,0.7-2.5,0.2c-0.4-0.2-0.8-0.3-1.3-0.5c-1.4-0.4-2.7,0.2-3.3,1.4c-0.5,1.3,0,2.7,1.4,3.3
	c1.7,0.7,3.3,1.4,4.8,2.4c1,0.7,1.9,1.4,2.6,2.5c1.3,2.1,0.5,4.2-1.9,4.7c-3.4,0.8-6.7-0.1-10-0.7c-1.4-0.3-2.8-0.9-4.2-1.1
	c-1.7-0.3-2.1-1.2-2.2-2.9c-0.8-8.9-4.8-16.2-11.9-21.8c-1.3-1-2.7-1-3.7-0.1c-1.2,1.2-1,2.9,0.6,4.1c2.4,1.8,4.4,4,5.9,6.7
	c-9.6-7.3-19.5-5.3-29.6-1.2c0.6,1.2,1.6,1.8,2.3,2.6c1.8,2,3.6,4.1,5.2,6.3c1.2,1.6,1.1,3.1-0.1,4.1c-1.3,1-2.7,0.7-4-1
	c-2.3-3.1-4.8-5.9-7.6-8.5c-0.6-0.5-1-0.6-1.6-0.2c-4.6,2.9-8.8,6.3-12.7,10.1c-0.7,0.7-0.4,1,0.2,1.5c5.2,4.5,9,10,11.8,16.3
	c0.3,0.8,0.6,1.6,0.9,2.4c0.4,1.5-0.3,2.9-1.6,3.3c-1.4,0.4-2.7-0.2-3.2-1.7c-1.6-4.9-4.4-9.1-7.7-12.9c-1-1.2-2.3-2.3-3.4-3.4
	c-0.8-0.9-1.3-0.9-2.2,0.1C40,94.9,33.3,104,27.4,113.7c-0.9,1.5-1.8,2.2-3.5,1.7c-0.3-0.1-0.7-0.1-1.2-0.1
	c2.7-5.7,5.7-11.1,8.9-16.2c6.6-10.3,14.2-19.8,23.6-27.7c6.2-5.2,12.7-9.8,20.7-11.8c3.8-1,7.7-1.3,11.6-0.6
	c1.2,0.2,2.3,0.2,3.1-0.9c0.8-1.1,0.7-2.1-0.1-3.2c-0.3-0.3-0.2-0.7-0.1-1c1.2-4.2,2.6-8.3,5.7-11.6c2.1-2.3,4.6-3.3,7.7-2.6
	c2.2,0.5,2.9,1.5,2.5,3.7c-0.5,2.7-1.8,5.1-3.3,7.4c-0.2,0.3-0.5,0.7-0.7,1c-0.8,1.3-0.6,2.8,0.6,3.6c1.1,0.8,2.7,0.5,3.6-0.7
	c1.6-2.1,2.8-4.4,3.8-6.8c0.3-0.9,0.8-1.7,1.5-2.3c3.3-3,6.7-5.7,10.7-7.7c1.2-0.6,2.5-1.1,3.9-1.1c1.5,0.1,2.2,0.8,2.1,2.3
	c-0.2,2.4-1.3,4.5-2.5,6.5c-2.7,4.4-6,8.1-9.9,11.5c-0.4,0.3-0.8,0.6-1.1,1c-1,1-1,2.4-0.1,3.4c0.9,1,2.3,1.3,3.4,0.4
	c1.6-1.2,3.1-2.6,4.5-4c0.6-0.6,1.3-1.1,2.1-1.4c4.1-1.5,8.3-3,12.8-2.6C141.1,54.2,142.3,56.6,140.4,59.7z"/>
<path class="st0" d="M326.8,74.6c-1.5-7.4-5.4-12.9-12.7-15.4c-5.9-2-12-2.2-18.1-0.7c-7,1.8-12,6.2-14.6,12.9
	c-3.1,7.7-3,15.7-0.7,23.6c1.7,5.9,5.7,10,11.6,11.9c6.1,2,12.3,2.2,18.5,0.6c7.1-1.8,12-6.2,14.7-13c1.6-3.9,2.1-7.9,2-12.5
	C327.5,79.8,327.3,77.2,326.8,74.6z M311.5,86c0,2.1-0.3,5.6-1,9c-0.2,0.8-0.6,1.3-1.3,1.6c-1.7,0.7-3.5,1-5.3,1
	c-3.2-0.1-5.5-1.6-7-4.4c-1.3-2.4-1.9-5-2.2-7.7c-0.4-4.8-0.3-9.5,0.7-14.2c0.2-1.2,0.8-1.7,1.9-1.9c1.5-0.3,3.1-0.5,4.6-0.5
	c3.6-0.2,6.4,1.7,8,5.3C311,76.6,311.6,80.3,311.5,86z"/>
<path class="st0" d="M395.5,157.8c3.4,0.1,6.8,0,10.2,0c0.5,0,1.2,0.2,1.2-0.7c-0.1-2.9-1-5.5-3.6-7c-2.7-1.5-5.6-1.5-8.2,0.2
	c-2.9,1.9-3.5,4.9-3.1,8.1c0.4,3.2,3.1,5.8,6.1,6.1c4.2,0.5,6.8-0.9,8.2-4.4c-1.1,0.1-2.1-0.4-2.9,0.7c-2.5,3.1-7.5,2.2-8.9-1.5
	C394,158.1,394.2,157.8,395.5,157.8z M394.3,154.7c0.6-2,2.6-3.5,4.9-3.5c2.4,0,4.4,1.4,5,3.5c0.2,0.7,0.2,1.1-0.8,1.1
	c-1.4-0.1-2.9,0-4.3,0c-1.3,0-2.6,0-3.9,0C394.4,155.7,394.1,155.5,394.3,154.7z"/>
<path class="st0" d="M228,157.8c0.9,0,1.3-0.2,1.3-1.2c-0.1-5.1-4.4-8.6-9.4-7.3c-4,1-6.2,4.6-5.5,9.2c0.6,3.8,3.9,6.4,8,6.2
	c2.7-0.1,4.7-1.2,6-3.6c0.2-0.3,0.6-0.8-0.1-0.9c-0.8-0.1-1.7-0.4-2.4,0.6c-1.4,1.9-3.4,2.2-5.5,1.6c-2.2-0.6-3.3-2.2-3.7-4.6
	C220.5,157.8,224.2,157.8,228,157.8z M217.5,155.7c-0.8,0-0.8-0.3-0.7-0.9c0.5-2.1,2.6-3.7,5-3.7c2.4,0,4.5,1.6,4.9,3.7
	c0.1,0.7,0,0.9-0.7,0.9c-1.5,0-3,0-4.5,0C220.2,155.7,218.8,155.7,217.5,155.7z"/>
<path class="st0" d="M318.3,157.8c1.8,0.1,3.5,0,5.3,0c1.8,0,3.6,0,5.4,0c0.5,0,1.1,0,1-0.7c-0.1-1.7-0.3-3.4-1.3-4.8
	c-2-2.8-5.5-3.9-9-2.7c-3,1.1-5,4.3-4.8,7.8c0.2,3.5,2.2,6.2,5.3,7.1c3.3,1,6.6,0,8.4-2.5c0.3-0.5,1-1,0.6-1.5
	c-0.4-0.5-1.3-0.3-2-0.1c-0.3,0.1-0.5,0.5-0.7,0.7c-1.4,1.6-3.1,2-5,1.6c-2-0.4-3.2-1.7-3.9-3.6
	C317.2,158.2,317.2,157.7,318.3,157.8z M317.4,154.7c0.5-2,2.6-3.5,4.9-3.5c2.4,0,4.5,1.5,5,3.6c0.2,0.7,0.1,1-0.7,1
	c-1.4,0-2.7,0-4.1,0c-1.4,0-2.8,0-4.2,0C317.5,155.7,317.2,155.5,317.4,154.7z"/>
<path class="st0" d="M262,149.1c-4.4,0-7.5,3.2-7.5,7.8c0,4.6,3.1,7.8,7.5,7.8c4.4,0,7.5-3.2,7.5-7.8
	C269.5,152.3,266.5,149.1,262,149.1z M261.9,162.6c-3.1-0.1-5.2-2.5-5.1-5.8c0.1-3.5,2.2-5.7,5.4-5.6c3.1,0.1,5.1,2.4,5,5.9
	C267.1,160.4,265,162.7,261.9,162.6z"/>
</svg>
